<?xml version="1.0" encoding="UTF-8" standalone="no"?>
<!-- Created with Inkscape (http://www.inkscape.org/) -->

<svg
   width="1080"
   height="1080"
   viewBox="0 0 285.74999 285.75001"
   version="1.1"
   id="svg5"
   sodipodi:docname="logo_sem_background_simbolo_white.svg"
   inkscape:version="1.1.1 (3bf5ae0d25, 2021-09-20)"
   inkscape:export-filename="/home/fejori/downloads/laranja da liga/ico/logo_48.png"
   inkscape:export-xdpi="4.2666669"
   inkscape:export-ydpi="4.2666669"
   xmlns:inkscape="http://www.inkscape.org/namespaces/inkscape"
   xmlns:sodipodi="http://sodipodi.sourceforge.net/DTD/sodipodi-0.dtd"
   xmlns="http://www.w3.org/2000/svg"
   xmlns:svg="http://www.w3.org/2000/svg">
  <sodipodi:namedview
     id="namedview7"
     pagecolor="#505050"
     bordercolor="#eeeeee"
     borderopacity="1"
     inkscape:pageshadow="0"
     inkscape:pageopacity="0"
     inkscape:pagecheckerboard="0"
     inkscape:document-units="px"
     showgrid="false"
     units="px"
     inkscape:snap-grids="false"
     inkscape:zoom="0.46456022"
     inkscape:cx="590.88141"
     inkscape:cy="463.87958"
     inkscape:window-width="1584"
     inkscape:window-height="1033"
     inkscape:window-x="967"
     inkscape:window-y="38"
     inkscape:window-maximized="1"
     inkscape:current-layer="layer1"
     width="1080px" />
  <defs
     id="defs2">
    <rect
       x="626.84058"
       y="665.51459"
       width="659.86719"
       height="114.84284"
       id="rect10046" />
  </defs>
  <g
     inkscape:label="Layer 1"
     inkscape:groupmode="layer"
     id="layer1">
    <path
       sodipodi:type="star"
       style="opacity:1;fill:none;stroke:#ffffff;stroke-width:3.52211;stroke-linecap:round;stroke-linejoin:round;stroke-miterlimit:4;stroke-dasharray:none;stroke-opacity:1;paint-order:normal"
       id="path1476"
       inkscape:flatsided="false"
       sodipodi:sides="12"
       sodipodi:cx="830.83313"
       sodipodi:cy="566.37836"
       sodipodi:r1="109.52096"
       sodipodi:r2="123.05726"
       sodipodi:arg1="-0.78560759"
       sodipodi:arg2="-0.5238082"
       inkscape:rounded="0.45"
       inkscape:randomized="0"
       d="m 908.25992,488.91913 c 10.56375,10.55933 21.66019,2.97465 29.13103,15.90828 7.47085,12.93363 -4.64345,18.75616 -0.77464,33.18268 3.86882,14.42653 17.27095,13.40622 17.27408,28.3425 0.003,14.93627 -13.39943,13.92158 -17.2622,28.34972 -3.86278,14.42814 8.25396,20.2456 0.78854,33.18236 -7.46543,12.93675 -18.56504,5.35673 -29.12437,15.92048 -10.55933,10.56375 -2.97465,21.66018 -15.90828,29.13103 -12.93363,7.47085 -18.75616,-4.64345 -33.18269,-0.77464 -14.42652,3.86881 -13.40621,17.27094 -28.34249,17.27407 -14.93627,0.003 -13.92158,-13.39943 -28.34972,-17.2622 -14.42815,-3.86277 -20.2456,8.25397 -33.18236,0.78854 -12.93676,-7.46543 -5.35673,-18.56503 -15.92048,-29.12436 -10.56376,-10.55933 -21.66019,-2.97466 -29.13103,-15.90829 -7.47085,-12.93363 4.64345,-18.75615 0.77464,-33.18268 -3.86882,-14.42652 -17.27095,-13.40622 -17.27408,-28.34249 -0.003,-14.93628 13.39943,-13.92158 17.2622,-28.34973 3.86278,-14.42814 -8.25396,-20.24559 -0.78854,-33.18235 7.46543,-12.93676 18.56504,-5.35673 29.12437,-15.92048 10.55933,-10.56376 2.97465,-21.66019 15.90828,-29.13104 12.93363,-7.47084 18.75616,4.64346 33.18269,0.77464 14.42652,-3.86881 13.40621,-17.27094 28.34249,-17.27407 14.93627,-0.003 13.92158,13.39943 28.34972,17.2622 14.42815,3.86277 20.2456,-8.25397 33.18236,-0.78854 12.93676,7.46543 5.35673,18.56504 15.92048,29.12437 z"
       transform="matrix(1.0503128,0.27680332,-0.27680332,1.0503128,-572.80321,-680.75229)"
       inkscape:transform-center-y="-2.4313984e-05"
       inkscape:transform-center-x="1.191002e-05" />
    <path
       sodipodi:type="star"
       style="opacity:1;fill:none;stroke:#ffffff;stroke-width:3.52211;stroke-linecap:round;stroke-linejoin:round;stroke-miterlimit:4;stroke-dasharray:none;stroke-opacity:1;paint-order:normal"
       id="path2598"
       inkscape:flatsided="false"
       sodipodi:sides="12"
       sodipodi:cx="830.83313"
       sodipodi:cy="566.37836"
       sodipodi:r1="107.05982"
       sodipodi:r2="123.05726"
       sodipodi:arg1="-0.78560759"
       sodipodi:arg2="-0.5238082"
       inkscape:rounded="0.26"
       inkscape:randomized="0"
       d="m 906.52,490.65978 c 6.24601,6.24339 26.45368,6.52039 30.87095,14.16763 4.41728,7.64724 -5.43929,25.29022 -3.15178,33.82017 2.28751,8.52995 19.64937,18.87366 19.65122,27.70501 0.002,8.83134 -17.35568,19.18233 -19.63961,27.71323 -2.28394,8.5309 7.58002,26.16975 3.16595,33.81885 -4.41408,7.64909 -24.62163,7.93455 -30.86502,14.18056 -6.2434,6.24601 -6.52039,26.45368 -14.16763,30.87095 -7.64725,4.41728 -25.29023,-5.43929 -33.82017,-3.15178 -8.52995,2.28751 -18.87366,19.64936 -27.70501,19.65121 -8.83134,0.002 -19.18233,-17.35567 -27.71323,-19.63961 -8.53091,-2.28393 -26.16976,7.58002 -33.81885,3.16595 -7.64909,-4.41407 -7.93455,-24.62162 -14.18056,-30.86501 -6.24601,-6.2434 -26.45368,-6.52039 -30.87095,-14.16764 -4.41728,-7.64724 5.43928,-25.29022 3.15178,-33.82017 -2.28751,-8.52994 -19.64937,-18.87366 -19.65122,-27.705 -0.002,-8.83135 17.35568,-19.18233 19.63961,-27.71324 2.28394,-8.5309 -7.58002,-26.16975 -3.16595,-33.81884 4.41408,-7.6491 24.62163,-7.93455 30.86502,-14.18056 6.2434,-6.24602 6.52039,-26.45368 14.16763,-30.87096 7.64725,-4.41727 25.29023,5.43929 33.82017,3.15179 8.52995,-2.28751 18.87366,-19.64937 27.70501,-19.65122 8.83134,-0.002 19.18233,17.35568 27.71323,19.63961 8.53091,2.28393 26.16976,-7.58002 33.81885,-3.16595 7.64909,4.41407 7.93455,24.62162 14.18056,30.86502 z"
       transform="matrix(0.99920279,0.26822806,-0.26813681,0.99955546,-535.24784,-644.87984)"
       inkscape:transform-center-x="8.7651489e-05"
       inkscape:transform-center-y="-4.4728797e-05" />
    <path
       style="fill:none;stroke:#ffffff;stroke-width:4.44272;stroke-linecap:round;stroke-linejoin:round;stroke-miterlimit:4;stroke-dasharray:none;stroke-opacity:1"
       d="m 212.37352,176.59392 c 0,0 -9.87708,13.4137 -26.31594,13.10974 -16.43878,-0.30393 -28.16621,-7.18669 -38.4967,-13.31601 -10.3305,-6.12935 -25.47794,-16.98814 -46.39989,-18.02049 -20.921959,-1.03236 -26.506479,9.9085 -27.329729,15.9174 -0.64436,4.70304 1.64994,16.4403 23.7574,15.21405 22.107479,-1.22627 30.898609,-11.27913 34.880209,-19.97804 3.98163,-8.69888 3.44277,-23.53973 3.3322,-35.2253 -0.14088,-14.89373 -1.32863,-55.955893 31.55499,-55.178222 22.49852,0.532089 27.40227,21.931062 15.73271,34.304362"
       id="path2890"
       sodipodi:nodetypes="cssssssssc" />
    <text
       xml:space="preserve"
       transform="matrix(1.2208241,0,0,1.2240093,-697.57117,-464.53996)"
       id="text10044"
       style="font-style:normal;font-variant:normal;font-weight:normal;font-stretch:normal;font-size:40px;line-height:1.25;font-family:Comfortaa;-inkscape-font-specification:'Comfortaa, Normal';font-variant-ligatures:normal;font-variant-position:normal;font-variant-caps:normal;font-variant-numeric:normal;font-variant-east-asian:normal;white-space:pre;shape-inside:url(#rect10046);fill:#392285;fill-opacity:1;stroke:none"><tspan
         x="626.83984"
         y="702.11905"
         id="tspan1870">Laranja da liga</tspan></text>
  </g>
</svg>
